<?xml version="1.0" standalone="no"?>
<!DOCTYPE svg PUBLIC "-//W3C//DTD SVG 20010904//EN"
 "http://www.w3.org/TR/2001/REC-SVG-20010904/DTD/svg10.dtd">
<svg version="1.0" xmlns="http://www.w3.org/2000/svg"
 width="350.000000pt" height="350.000000pt" viewBox="0 0 350.000000 350.000000"
 preserveAspectRatio="xMidYMid meet">
<metadata>
Created by potrace 1.11, written by Peter Selinger 2001-2013
</metadata>
<g transform="translate(0.000000,350.000000) scale(0.100000,-0.100000)"
fill="#000000" stroke="none">
<path d="M963 2578 c-39 -18 -60 -104 -41 -160 6 -16 21 -37 35 -48 23 -18 41
-20 179 -20 140 0 154 -2 154 -17 1 -10 1 -262 1 -560 0 -378 -4 -555 -12
-585 -15 -57 -42 -108 -71 -135 -86 -81 -289 -94 -391 -25 -52 34 -103 117
-111 180 -13 86 -25 111 -63 127 -50 21 -121 19 -160 -5 -39 -23 -52 -62 -47
-147 15 -254 240 -433 549 -436 154 -1 260 26 362 92 99 64 154 142 189 272
16 58 18 126 20 731 1 475 -2 674 -10 690 -25 50 -58 56 -319 56 -145 0 -251
-4 -264 -10z"/>
<path d="M2253 2570 c-212 -50 -351 -197 -380 -403 -10 -66 -10 -925 -1 -992
28 -201 139 -335 329 -398 93 -31 239 -39 353 -20 223 38 359 158 412 365 20
76 27 486 10 540 -18 54 -36 58 -299 58 l-238 0 -24 -25 c-14 -13 -26 -31 -26
-40 -1 -8 -2 -25 -3 -37 -3 -33 12 -73 34 -93 15 -14 41 -17 160 -16 l141 0
-2 -142 c-2 -173 -20 -244 -76 -302 -59 -61 -112 -80 -223 -79 -164 2 -241 58
-280 204 -8 32 -12 171 -12 476 0 376 2 440 17 490 37 128 109 183 250 192 99
6 173 -13 228 -59 47 -39 72 -86 93 -179 14 -61 20 -74 47 -91 35 -21 118 -26
161 -9 54 20 72 92 51 205 -25 134 -108 235 -248 303 -45 22 -111 46 -147 52
-102 19 -245 19 -327 0z"/>
</g>
</svg>
